<svg width="112" height="112" viewBox="0 0 112 112" fill="none" xmlns="http://www.w3.org/2000/svg">
<path d="M97.9999 9.33325H69.9999C68.7622 9.33325 67.5753 9.82492 66.7001 10.7001C65.8249 11.5753 65.3333 12.7622 65.3333 13.9999C65.3333 15.2376 65.8249 16.4246 66.7001 17.2998C67.5753 18.1749 68.7622 18.6666 69.9999 18.6666H93.3333V41.9999C93.3333 43.2376 93.8249 44.4246 94.7001 45.2998C95.5753 46.1749 96.7622 46.6666 97.9999 46.6666C99.2376 46.6666 100.425 46.1749 101.3 45.2998C102.175 44.4246 102.667 43.2376 102.667 41.9999V13.9999C102.667 12.7622 102.175 11.5753 101.3 10.7001C100.425 9.82492 99.2376 9.33325 97.9999 9.33325V9.33325ZM97.9999 65.3333C96.7622 65.3333 95.5753 65.8249 94.7001 66.7001C93.8249 67.5753 93.3333 68.7622 93.3333 69.9999V93.3333H69.9999C68.7622 93.3333 67.5753 93.8249 66.7001 94.7001C65.8249 95.5753 65.3333 96.7622 65.3333 97.9999C65.3333 99.2376 65.8249 100.425 66.7001 101.3C67.5753 102.175 68.7622 102.667 69.9999 102.667H97.9999C99.2376 102.667 100.425 102.175 101.3 101.3C102.175 100.425 102.667 99.2376 102.667 97.9999V69.9999C102.667 68.7622 102.175 67.5753 101.3 66.7001C100.425 65.8249 99.2376 65.3333 97.9999 65.3333ZM55.9999 27.9999C52.2869 27.9999 48.7259 29.4749 46.1004 32.1004C43.4749 34.7259 41.9999 38.2869 41.9999 41.9999V46.6666C39.5246 46.6666 37.1506 47.6499 35.4003 49.4003C33.6499 51.1506 32.6666 53.5246 32.6666 55.9999V74.6666C32.6666 77.1419 33.6499 79.5159 35.4003 81.2663C37.1506 83.0166 39.5246 83.9999 41.9999 83.9999H69.9999C72.4753 83.9999 74.8492 83.0166 76.5996 81.2663C78.3499 79.5159 79.3333 77.1419 79.3333 74.6666V55.9999C79.3333 53.5246 78.3499 51.1506 76.5996 49.4003C74.8492 47.6499 72.4753 46.6666 69.9999 46.6666V41.9999C69.9999 38.2869 68.5249 34.7259 65.8994 32.1004C63.2739 29.4749 59.713 27.9999 55.9999 27.9999ZM51.3333 41.9999C51.3333 40.7622 51.8249 39.5753 52.7001 38.7001C53.5753 37.8249 54.7622 37.3333 55.9999 37.3333C57.2376 37.3333 58.4246 37.8249 59.2998 38.7001C60.1749 39.5753 60.6666 40.7622 60.6666 41.9999V46.6666H51.3333V41.9999ZM69.9999 74.6666H41.9999V55.9999H69.9999V74.6666ZM13.9999 46.6666C15.2376 46.6666 16.4246 46.1749 17.2998 45.2998C18.1749 44.4246 18.6666 43.2376 18.6666 41.9999V18.6666H41.9999C43.2376 18.6666 44.4246 18.1749 45.2998 17.2998C46.1749 16.4246 46.6666 15.2376 46.6666 13.9999C46.6666 12.7622 46.1749 11.5753 45.2998 10.7001C44.4246 9.82492 43.2376 9.33325 41.9999 9.33325H13.9999C12.7622 9.33325 11.5753 9.82492 10.7001 10.7001C9.82492 11.5753 9.33325 12.7622 9.33325 13.9999V41.9999C9.33325 43.2376 9.82492 44.4246 10.7001 45.2998C11.5753 46.1749 12.7622 46.6666 13.9999 46.6666ZM41.9999 93.3333H18.6666V69.9999C18.6666 68.7622 18.1749 67.5753 17.2998 66.7001C16.4246 65.8249 15.2376 65.3333 13.9999 65.3333C12.7622 65.3333 11.5753 65.8249 10.7001 66.7001C9.82492 67.5753 9.33325 68.7622 9.33325 69.9999V97.9999C9.33325 99.2376 9.82492 100.425 10.7001 101.3C11.5753 102.175 12.7622 102.667 13.9999 102.667H41.9999C43.2376 102.667 44.4246 102.175 45.2998 101.3C46.1749 100.425 46.6666 99.2376 46.6666 97.9999C46.6666 96.7622 46.1749 95.5753 45.2998 94.7001C44.4246 93.8249 43.2376 93.3333 41.9999 93.3333Z" fill="#000"/>
<path d="M90 28.6699C89.9368 28.487 89.822 28.3263 89.6693 28.2074C89.5167 28.0885 89.3328 28.0164 89.14 27.9999L83.45 27.1699L80.9 21.9999C80.8181 21.8308 80.6902 21.6882 80.5311 21.5885C80.3719 21.4887 80.1878 21.4358 80 21.4358C79.8121 21.4358 79.6281 21.4887 79.4689 21.5885C79.3097 21.6882 79.1819 21.8308 79.1 21.9999L76.55 27.1599L70.86 27.9999C70.6749 28.0262 70.5009 28.1039 70.3577 28.2241C70.2146 28.3443 70.1079 28.5022 70.05 28.6799C69.9969 28.8536 69.9922 29.0384 70.0362 29.2146C70.0802 29.3908 70.1714 29.5516 70.3 29.6799L74.43 33.6799L73.43 39.3599C73.3943 39.5474 73.413 39.7412 73.4838 39.9184C73.5547 40.0955 73.6748 40.2488 73.83 40.3599C73.9812 40.468 74.1596 40.5318 74.345 40.5442C74.5305 40.5566 74.7157 40.517 74.88 40.4299L80 37.7599L85.1 40.4399C85.2403 40.5191 85.3988 40.5604 85.56 40.5599C85.7718 40.5607 85.9784 40.4941 86.15 40.3699C86.3051 40.2588 86.4252 40.1055 86.4961 39.9284C86.567 39.7512 86.5857 39.5574 86.55 39.3699L85.55 33.6899L89.68 29.6899C89.8244 29.5676 89.9311 29.4068 89.9877 29.2262C90.0444 29.0457 90.0486 28.8528 90 28.6699ZM83.85 32.6699C83.7327 32.7833 83.645 32.9237 83.5944 33.0789C83.5439 33.234 83.532 33.3992 83.56 33.5599L84.28 37.7499L80.52 35.7499C80.3753 35.6729 80.2139 35.6326 80.05 35.6326C79.8861 35.6326 79.7247 35.6729 79.58 35.7499L75.82 37.7499L76.54 33.5599C76.5679 33.3992 76.5561 33.234 76.5055 33.0789C76.455 32.9237 76.3673 32.7833 76.25 32.6699L73.25 29.6699L77.46 29.0599C77.622 29.0374 77.776 28.9754 77.9085 28.8796C78.041 28.7837 78.1479 28.6567 78.22 28.5099L80 24.6999L81.88 28.5199C81.952 28.6667 82.059 28.7937 82.1915 28.8896C82.324 28.9854 82.478 29.0474 82.64 29.0699L86.85 29.6799L83.85 32.6699Z" fill="#000"/>
</svg>
