<?xml version="1.0" encoding="UTF-8"?>
<svg id="Layer_2" data-name="Layer 2" xmlns="http://www.w3.org/2000/svg" viewBox="0 0 316 375.29">
  <g id="Layer_1-2">
    <path
        d="m160.13.01c-.71-.01-1.42-.01-2.13-.01s-1.42,0-2.13.01C69.59,1.16,0,71.45,0,158c0,50.03,6,71,57,125l91.25,88.37c2.71,2.66,6.24,3.96,9.75,3.92,3.51.04,7.04-1.26,9.75-3.92l91.25-88.37c51-54,57-74.97,57-125C316,71.45,246.41,1.16,160.13.01Zm-2.63,284.99c-69.31,0-125.5-56.19-125.5-125.5s56.19-125.5,125.5-125.5,125.5,56.19,125.5,125.5-56.19,125.5-125.5,125.5Z"
        fill="#000"
        stroke="none"
        stroke-width="0"
    />
    <g>
      <path
          d="m209.28,194.44c-23.81,35.01-66.21,47.68-94.7,28.3-.51-.35-1.01-.7-1.51-1.07-.19-19.92,6.12-53,47.8-63.64,49.08-12.53,32.33-53.68,23.88-69.34,5.67,1.47,11.08,3.88,16.07,7.28,28.49,19.38,32.28,63.47,8.46,98.47Z"
          fill="none"
          stroke="#000"
          stroke-linecap="round"
          stroke-linejoin="round"
          stroke-width="19"
      />
      <path
          d="m160.88,158.03c-41.68,10.64-47.99,43.72-47.8,63.64-27.1-19.89-30.34-63.02-6.96-97.4,19.64-28.88,51.94-42.56,78.63-35.58,8.46,15.66,25.2,56.81-23.88,69.34Z"
          fill="none"
          stroke="#000"
          stroke-linecap="round"
          stroke-linejoin="round"
          stroke-width="19"
      />
    </g>
  </g>
</svg>